<svg width="27" height="23" viewBox="0 0 27 23" fill="none" xmlns="http://www.w3.org/2000/svg">
<path d="M13.149 0.272837C13.3724 0.175249 13.6263 0.175249 13.8497 0.272837C18.1883 2.16846 22.3002 4.48576 26.1337 7.17282C26.4111 7.36727 26.5514 7.7044 26.4937 8.03824C26.4361 8.37209 26.1909 8.64265 25.8643 8.73279C25.0652 8.95335 24.2731 9.19091 23.4881 9.44407C20.3018 10.4717 17.2347 11.7646 14.3126 13.2969L14.3088 13.2989C14.1763 13.3684 14.0441 13.4384 13.9122 13.5088C13.6546 13.6465 13.3452 13.6465 13.0875 13.5088C12.9544 13.4377 12.8209 13.3671 12.6872 13.2969C11.2423 12.5392 9.76195 11.8401 8.24927 11.2026V10.9416C8.24927 10.7884 8.32792 10.6524 8.44962 10.5787C10.2056 9.51484 12.0169 8.53326 13.8781 7.63925C14.3137 7.43002 14.4972 6.90728 14.288 6.47167C14.0788 6.03607 13.556 5.85256 13.1204 6.06179C11.208 6.9804 9.34693 7.98894 7.54285 9.08191C7.0139 9.40236 6.65831 9.92683 6.54135 10.5144C5.54394 10.1307 4.53342 9.77337 3.51061 9.44352C2.72564 9.19037 1.93345 8.95333 1.1344 8.73277C0.807829 8.64263 0.562638 8.37207 0.504981 8.03823C0.447323 7.70439 0.587562 7.36726 0.864983 7.1728C4.69846 4.48575 8.8104 2.16846 13.149 0.272837Z" fill="#A685FA"/>
<path d="M14.7369 15.0523C17.5823 13.532 20.5717 12.2468 23.6794 11.2224C23.836 12.873 23.936 14.54 23.9774 16.2214C23.9863 16.5822 23.7728 16.9114 23.4398 17.0504C20.1135 18.4392 16.9495 20.1397 13.9845 22.1156C13.6907 22.3115 13.3079 22.3115 13.0141 22.1156C10.0491 20.1397 6.88512 18.4392 3.5588 17.0504C3.22579 16.9114 3.01229 16.5822 3.02118 16.2214C3.0626 14.5399 3.16261 12.8727 3.31925 11.222C4.39375 11.5762 5.45411 11.9615 6.49927 12.377V13.8591C5.97619 14.1617 5.62427 14.7273 5.62427 15.375C5.62427 15.9529 5.90436 16.4653 6.33619 16.784C6.23176 17.2281 6.0772 17.6626 5.8725 18.0787C6.40064 18.328 6.92427 18.5853 7.44322 18.8504C7.73877 18.2493 7.95307 17.6184 8.0861 16.9742C8.69784 16.7014 9.12427 16.088 9.12427 15.375C9.12427 14.7273 8.77234 14.1617 8.24927 13.8591V13.1069C9.6159 13.704 10.9546 14.3533 12.2628 15.0523C13.0358 15.4654 13.9639 15.4654 14.7369 15.0523Z" fill="#A685FA"/>
<path d="M4.70519 19.706C5.19418 19.217 5.58346 18.6663 5.8725 18.0787C6.40064 18.328 6.92427 18.5853 7.44322 18.8504C7.07157 19.6063 6.57118 20.3149 5.94263 20.9434C5.60092 21.2852 5.0469 21.2852 4.70519 20.9434C4.36349 20.6017 4.36349 20.0477 4.70519 19.706Z" fill="#A685FA"/>
</svg>
