<svg width="27" height="29" viewBox="0 0 27 29" fill="none" xmlns="http://www.w3.org/2000/svg">
<path fill-rule="evenodd" clip-rule="evenodd" d="M14.8647 0.738137C14.6922 0.506801 14.433 0.355585 14.1468 0.319251C13.8605 0.282917 13.5717 0.364591 13.3469 0.545498C10.6975 2.67733 8.84965 5.7701 8.33373 9.29563C7.40359 8.62135 6.58666 7.79984 5.91743 6.86525C5.73332 6.60815 5.44427 6.44641 5.12884 6.42401C4.81342 6.40161 4.50441 6.52086 4.28581 6.74936C2.0965 9.03786 0.75 12.1438 0.75 15.5619C0.75 22.6036 6.45837 28.3119 13.5 28.3119C20.5416 28.3119 26.25 22.6036 26.25 15.5619C26.25 10.3757 23.1536 5.91492 18.713 3.92319C17.1417 3.15607 15.8441 2.05146 14.8647 0.738137ZM18.8125 17.6875C18.8125 20.6215 16.434 23 13.5 23C10.566 23 8.1875 20.6215 8.1875 17.6875C8.1875 17.1076 8.28041 16.5494 8.45216 16.027C9.3425 16.6852 10.3659 17.1737 11.4746 17.4447C11.7804 15.4603 12.7726 13.7023 14.2011 12.4209C16.8037 12.764 18.8125 14.9912 18.8125 17.6875Z" fill="#A685FA"/>
</svg>
