<svg width="24" height="33" viewBox="0 0 24 33" fill="none" xmlns="http://www.w3.org/2000/svg">
<path d="M12 0.5625C5.54517 0.5625 0.3125 5.79517 0.3125 12.25C0.3125 16.5719 2.65894 20.3446 6.14231 22.3656C7.11338 22.9291 7.72146 23.7936 7.74898 24.6636C7.76416 25.1435 8.0993 25.5536 8.56657 25.664C9.06436 25.7817 9.57162 25.8743 10.0869 25.9405C10.5454 25.9994 10.9378 25.6322 10.9378 25.17V18.5668C10.4854 18.5168 10.0422 18.4352 9.61042 18.324C9.04214 18.1778 8.70003 17.5985 8.84629 17.0302C8.99256 16.4619 9.57181 16.1198 10.1401 16.2661C10.7334 16.4188 11.3565 16.5003 12.0003 16.5003C12.644 16.5003 13.2671 16.4188 13.8604 16.2661C14.4287 16.1198 15.008 16.4619 15.1542 17.0302C15.3005 17.5985 14.9584 18.1778 14.3901 18.324C13.9583 18.4352 13.5151 18.5168 13.0628 18.5668V25.1699C13.0628 25.6321 13.4552 25.9994 13.9136 25.9404C14.4287 25.8742 14.9358 25.7817 15.4334 25.664C15.9007 25.5536 16.2358 25.1435 16.251 24.6636C16.2785 23.7936 16.8866 22.9291 17.8577 22.3656C21.3411 20.3446 23.6875 16.5719 23.6875 12.25C23.6875 5.79517 18.4548 0.5625 12 0.5625Z" fill="#A685FA"/>
<path fill-rule="evenodd" clip-rule="evenodd" d="M7.76862 27.6912C7.87798 27.1147 8.434 26.7359 9.01052 26.8453C9.97806 27.0288 10.9773 27.125 12 27.125C13.0227 27.125 14.0219 27.0288 14.9895 26.8453C15.566 26.7359 16.122 27.1147 16.2314 27.6912C16.3407 28.2677 15.962 28.8237 15.3855 28.9331C14.2881 29.1413 13.1563 29.25 12 29.25C10.8438 29.25 9.71192 29.1413 8.61448 28.9331C8.03796 28.8237 7.65925 28.2677 7.76862 27.6912Z" fill="#A685FA"/>
<path fill-rule="evenodd" clip-rule="evenodd" d="M8.81827 31.154C8.87932 30.5703 9.40193 30.1467 9.98555 30.2078C10.6472 30.277 11.3193 30.3125 12 30.3125C12.6807 30.3125 13.3528 30.277 14.0145 30.2078C14.5981 30.1467 15.1207 30.5703 15.1817 31.154C15.2428 31.7376 14.8192 32.2602 14.2355 32.3212C13.5005 32.3981 12.7547 32.4375 12 32.4375C11.2453 32.4375 10.4995 32.3981 9.76445 32.3212C9.18084 32.2602 8.75721 31.7376 8.81827 31.154Z" fill="#A685FA"/>
</svg>
