<svg width="26" height="26" viewBox="0 0 26 26" fill="none" xmlns="http://www.w3.org/2000/svg">
<path d="M4.5 0.25C2.15279 0.25 0.25 2.15279 0.25 4.5V7.6875C0.25 10.0347 2.15279 11.9375 4.5 11.9375H7.6875C10.0347 11.9375 11.9375 10.0347 11.9375 7.6875V4.5C11.9375 2.15279 10.0347 0.25 7.6875 0.25H4.5Z" fill="#A685FA"/>
<path d="M18.3125 0.25C15.9653 0.25 14.0625 2.15279 14.0625 4.5V7.6875C14.0625 10.0347 15.9653 11.9375 18.3125 11.9375H21.5C23.8472 11.9375 25.75 10.0347 25.75 7.6875V4.5C25.75 2.15279 23.8472 0.25 21.5 0.25H18.3125Z" fill="#A685FA"/>
<path d="M4.5 14.0625C2.15279 14.0625 0.25 15.9653 0.25 18.3125V21.5C0.25 23.8472 2.15279 25.75 4.5 25.75H7.6875C10.0347 25.75 11.9375 23.8472 11.9375 21.5V18.3125C11.9375 15.9653 10.0347 14.0625 7.6875 14.0625H4.5Z" fill="#A685FA"/>
<path d="M20.9688 15.125C20.9688 14.5382 20.4931 14.0625 19.9062 14.0625C19.3194 14.0625 18.8438 14.5382 18.8438 15.125V18.8438H15.125C14.5382 18.8438 14.0625 19.3194 14.0625 19.9062C14.0625 20.4931 14.5382 20.9688 15.125 20.9688H18.8438V24.6875C18.8438 25.2743 19.3194 25.75 19.9062 25.75C20.4931 25.75 20.9688 25.2743 20.9688 24.6875V20.9688H24.6875C25.2743 20.9688 25.75 20.4931 25.75 19.9062C25.75 19.3194 25.2743 18.8438 24.6875 18.8438H20.9688V15.125Z" fill="#A685FA"/>
</svg>
