<svg width="25" height="29" viewBox="0 0 25 29" fill="none" xmlns="http://www.w3.org/2000/svg">
<path fill-rule="evenodd" clip-rule="evenodd" d="M11.848 28.664C11.8908 28.6888 11.9244 28.7079 11.9482 28.7213L11.9878 28.7434C12.3035 28.9167 12.6952 28.9154 13.0112 28.7439L13.0518 28.7213C13.0756 28.7079 13.1092 28.6888 13.152 28.664C13.2376 28.6144 13.3599 28.5421 13.5136 28.4474C13.821 28.2582 14.2549 27.9791 14.7732 27.6129C15.808 26.8819 17.1888 25.7972 18.5726 24.3804C21.3268 21.5605 24.1875 17.3237 24.1875 11.875C24.1875 5.42017 18.9548 0.1875 12.5 0.1875C6.04517 0.1875 0.8125 5.42017 0.8125 11.875C0.8125 17.3237 3.67321 21.5605 6.4274 24.3804C7.81119 25.7972 9.19196 26.8819 10.2268 27.6129C10.7451 27.9791 11.179 28.2582 11.4864 28.4474C11.6401 28.5421 11.7624 28.6144 11.848 28.664ZM12.5 16.125C14.8472 16.125 16.75 14.2222 16.75 11.875C16.75 9.52779 14.8472 7.625 12.5 7.625C10.1528 7.625 8.25 9.52779 8.25 11.875C8.25 14.2222 10.1528 16.125 12.5 16.125Z" fill="#A685FA"/>
</svg>
