<svg width="31" height="30" viewBox="0 0 31 30" fill="none" xmlns="http://www.w3.org/2000/svg">
<path fill-rule="evenodd" clip-rule="evenodd" d="M0.625 4.375C0.625 2.02779 2.52779 0.125 4.875 0.125H6.81814C8.037 0.125 9.09946 0.954539 9.39508 2.13701L10.9616 8.40319C11.2208 9.44001 10.8334 10.5312 9.97843 11.1724L8.1458 12.5469C7.9555 12.6896 7.91413 12.8986 7.96758 13.0446C9.57622 17.4359 13.0641 20.9238 17.4554 22.5324C17.6014 22.5859 17.8104 22.5445 17.9531 22.3542L19.3276 20.5216C19.9688 19.6666 21.06 19.2792 22.0968 19.5384L28.363 21.1049C29.5455 21.4005 30.375 22.463 30.375 23.6819V25.625C30.375 27.9722 28.4722 29.875 26.125 29.875H22.9375C10.6146 29.875 0.625 19.8854 0.625 7.5625V4.375Z" fill="#A685FA"/>
</svg>
