<svg width="28" height="28" viewBox="0 0 28 28" fill="none" xmlns="http://www.w3.org/2000/svg">
<path d="M20.915 3.15603C17.9808 4.32985 14.8383 5.09371 11.5576 5.37677C10.612 5.45836 9.65475 5.50003 8.6875 5.50003H7.625C3.51738 5.50003 0.1875 8.82991 0.1875 12.9375C0.1875 16.6203 2.86422 19.6779 6.37829 20.271C6.85184 22.2104 7.50891 24.0779 8.33 25.8538C8.98742 27.2758 10.7017 27.7239 11.9887 26.9809L12.9185 26.444C14.1653 25.7242 14.5699 24.1877 14.0123 22.9475C13.6796 22.2075 13.3826 21.448 13.1237 20.6711C15.84 21.0367 18.451 21.7333 20.915 22.719C21.9431 19.6458 22.5 16.3567 22.5 12.9375C22.5 9.51835 21.9431 6.22927 20.915 3.15603Z" fill="#A685FA"/>
<path d="M22.8692 2.29935C24.0075 5.63659 24.625 9.21493 24.625 12.9375C24.625 16.6601 24.0074 20.2384 22.8692 23.5757C22.791 23.8048 22.7107 24.033 22.6277 24.2598C22.426 24.8108 22.7092 25.4211 23.2602 25.6228C23.8112 25.8245 24.4215 25.5413 24.6232 24.9903C24.8215 24.4484 25.0069 23.9002 25.1789 23.3462C25.9208 20.9566 26.4139 18.458 26.6281 15.881C27.3605 15.1182 27.8125 14.0803 27.8125 12.9375C27.8125 11.7948 27.3605 10.7569 26.6281 9.99406C26.4139 7.41702 25.9208 4.91843 25.1789 2.52888C25.0069 1.97484 24.8215 1.42669 24.6232 0.884804C24.4215 0.333759 23.8112 0.0505653 23.2602 0.252274C22.7092 0.453983 22.426 1.06421 22.6277 1.61526C22.7107 1.84209 22.7911 2.07021 22.8692 2.29935Z" fill="#A685FA"/>
</svg>
