<svg width="28" height="28" viewBox="0 0 28 28" fill="none" xmlns="http://www.w3.org/2000/svg">
<path fill-rule="evenodd" clip-rule="evenodd" d="M0.1875 2.84375C0.1875 1.37674 1.37674 0.1875 2.84375 0.1875H10.2812C11.7483 0.1875 12.9375 1.37674 12.9375 2.84375V21.4375C12.9375 24.9583 10.0833 27.8125 6.5625 27.8125C3.04168 27.8125 0.1875 24.9583 0.1875 21.4375V2.84375ZM6.5625 23.0312C7.4427 23.0312 8.15625 22.3177 8.15625 21.4375C8.15625 20.5573 7.4427 19.8438 6.5625 19.8438C5.6823 19.8438 4.96875 20.5573 4.96875 21.4375C4.96875 22.3177 5.6823 23.0312 6.5625 23.0312Z" fill="#A685FA"/>
<path d="M12.1852 27.8125H25.1564C26.6234 27.8125 27.8127 26.6233 27.8127 25.1562V17.7188C27.8127 16.2517 26.6234 15.0625 25.1564 15.0625H24.9584L12.573 27.4479C12.4466 27.5743 12.3173 27.6958 12.1852 27.8125Z" fill="#A685FA"/>
<path d="M15.0459 21.9694L24.2178 12.7975C25.2551 11.7602 25.2551 10.0784 24.2178 9.04103L18.9587 3.78193C17.9213 2.7446 16.2395 2.7446 15.2021 3.78193L15.0623 3.9218V21.4375C15.0623 21.6161 15.0568 21.7935 15.0459 21.9694Z" fill="#A685FA"/>
</svg>
