<svg width="26" height="23" viewBox="0 0 26 23" fill="none" xmlns="http://www.w3.org/2000/svg">
<path fill-rule="evenodd" clip-rule="evenodd" d="M8.625 4.875C8.625 2.45875 10.5838 0.5 13 0.5C15.4162 0.5 17.375 2.45875 17.375 4.875C17.375 7.29125 15.4162 9.25 13 9.25C10.5838 9.25 8.625 7.29125 8.625 4.875Z" fill="#A685FA"/>
<path fill-rule="evenodd" clip-rule="evenodd" d="M17.375 8.375C17.375 6.442 18.942 4.875 20.875 4.875C22.808 4.875 24.375 6.442 24.375 8.375C24.375 10.308 22.808 11.875 20.875 11.875C18.942 11.875 17.375 10.308 17.375 8.375Z" fill="#A685FA"/>
<path fill-rule="evenodd" clip-rule="evenodd" d="M1.625 8.375C1.625 6.442 3.192 4.875 5.125 4.875C7.058 4.875 8.625 6.442 8.625 8.375C8.625 10.308 7.058 11.875 5.125 11.875C3.192 11.875 1.625 10.308 1.625 8.375Z" fill="#A685FA"/>
<path fill-rule="evenodd" clip-rule="evenodd" d="M6.36151 14.6371C7.75914 12.4518 10.2097 11 13 11C15.7906 11 18.2415 12.4522 19.639 14.6379C20.6052 16.149 21.0232 17.9711 20.8271 19.7476C20.7965 20.0252 20.6351 20.2715 20.3929 20.4105C18.2143 21.6606 15.6893 22.375 13 22.375C10.3107 22.375 7.78569 21.6606 5.60712 20.4105C5.36486 20.2715 5.20351 20.0252 5.17287 19.7476C4.97676 17.9707 5.39498 16.1483 6.36151 14.6371Z" fill="#A685FA"/>
<path d="M4.92933 13.6293C4.91528 13.6509 4.90132 13.6725 4.88744 13.6942C3.76107 15.4554 3.24559 17.5528 3.40383 19.6205C2.69445 19.5128 2.00615 19.3394 1.3455 19.1068L1.21138 19.0595C0.966718 18.9734 0.795765 18.7512 0.775189 18.4926L0.76391 18.3509C0.754687 18.235 0.75 18.1179 0.75 18C0.75 15.6493 2.60389 13.7316 4.92933 13.6293Z" fill="#A685FA"/>
<path d="M22.5966 19.6204C22.7548 17.5532 22.2396 15.4562 21.1136 13.6952C21.0995 13.6732 21.0854 13.6512 21.0711 13.6293C23.3963 13.7319 25.25 15.6495 25.25 18C25.25 18.1179 25.2453 18.235 25.2361 18.3509L25.2248 18.4926C25.2042 18.7512 25.0333 18.9734 24.7886 19.0595L24.6545 19.1068C23.994 19.3394 23.3058 19.5127 22.5966 19.6204Z" fill="#A685FA"/>
</svg>
